<?xml version="1.0" encoding="UTF-8"?> <svg xmlns="http://www.w3.org/2000/svg" xmlns:xlink="http://www.w3.org/1999/xlink" width="300px" height="300px" viewBox="0 0 300 300"> <g id="surface1"> <path style=" stroke:none;fill-rule:nonzero;fill:rgb(0%,0%,0%);fill-opacity:1;" d="M 132.929688 98.304688 L 127.671875 98.304688 C 129.414062 99.179688 131.375 100.363281 133.246094 100.78125 C 133.125 99.957031 133.019531 99.132812 132.929688 98.304688 Z M 188.089844 198.71875 C 188.183594 197.316406 187.246094 194.960938 186.683594 193.707031 C 185.503906 191.066406 183.847656 188.3125 182.394531 186.59375 C 180.320312 184.140625 177.945312 184.402344 175.109375 184.480469 C 163.613281 184.789062 142.316406 192.945312 133.347656 201.707031 C 130.6875 204.300781 129.28125 205.59375 131.007812 209.105469 C 132.667969 212.488281 136.527344 218.539062 139.101562 221.3125 C 140.105469 222.394531 141.273438 222.507812 141.90625 221.429688 C 149.421875 208.722656 170.074219 202.402344 184.691406 200.0625 C 185.582031 199.917969 188.011719 199.917969 188.089844 198.71875 Z M 189.261719 201.5625 L 194.65625 209.269531 C 195.554688 210.5625 193.589844 211.933594 192.691406 210.644531 L 186.765625 202.171875 C 173.488281 204.078125 153.273438 209.820312 144.972656 221.15625 L 150.050781 228.640625 C 150.929688 229.941406 148.949219 231.289062 148.066406 229.984375 L 143.542969 223.316406 C 142.160156 225.109375 139.359375 224.902344 137.773438 223.394531 C 135.109375 220.859375 130.496094 213.507812 128.851562 210.160156 C 126.609375 205.589844 128.195312 203.390625 131.59375 200.070312 C 128.429688 196.222656 126.34375 191.816406 125.152344 187.152344 C 123.746094 181.667969 123.578125 175.808594 124.332031 170.054688 C 124.820312 166.328125 126.738281 162.683594 128.074219 159.160156 C 129.054688 156.578125 129.996094 153.582031 130.5625 149.839844 C 131.378906 142.328125 132.453125 138.460938 135.578125 131.597656 C 135.335938 131.195312 135.105469 130.773438 134.875 130.34375 C 133.992188 128.730469 133.085938 127.074219 131.214844 126.957031 C 130.195312 129.449219 128.925781 131.609375 127.1875 133.011719 C 123.882812 135.667969 117.453125 135.164062 115.574219 130.894531 C 115.140625 129.90625 115 128.808594 115.179688 127.726562 C 111.207031 127.257812 109.4375 124.21875 109.65625 120.425781 C 109.792969 118.050781 111.847656 115.253906 114.265625 112.726562 C 118.199219 108.625 123.875 103.628906 129.40625 101.886719 C 125.957031 100.207031 123.066406 98.304688 119.019531 98.304688 L 110.582031 98.304688 C 107.570312 98.304688 105.109375 95.847656 105.109375 92.835938 L 105.109375 14.949219 C 105.109375 11.9375 107.570312 9.480469 110.582031 9.480469 L 155.886719 9.480469 C 158.898438 9.480469 161.359375 11.9375 161.359375 14.949219 L 161.359375 76.800781 C 164.195312 77.433594 167.425781 78.496094 170.527344 79.917969 C 182.480469 85.378906 184.296875 90.757812 188.488281 102.171875 C 192.023438 111.789062 195.976562 119.9375 194.117188 130.480469 C 190.894531 148.777344 176.292969 163.558594 175.355469 182.078125 C 179.347656 182.011719 181.425781 181.90625 184.28125 185.289062 C 185.964844 187.28125 187.691406 190.066406 188.878906 192.722656 C 189.839844 194.878906 191.773438 199.894531 189.265625 201.558594 Z M 172.945312 182.210938 C 173.761719 163.140625 188.511719 148.414062 191.746094 130.066406 C 193.484375 120.1875 189.5625 112.074219 186.226562 103.003906 C 182.265625 92.21875 180.828125 87.265625 169.527344 82.097656 C 166.777344 80.839844 163.917969 79.878906 161.351562 79.269531 L 161.351562 89.109375 C 161.351562 91.394531 161.804688 92.464844 164.511719 93.066406 C 165.839844 93.359375 166.714844 92.679688 167.726562 91.929688 C 168.789062 91.140625 169.976562 90.253906 171.800781 89.867188 C 172.726562 89.671875 173.023438 91.082031 172.097656 91.277344 C 170.578125 91.601562 169.523438 92.386719 168.582031 93.085938 C 166.234375 94.835938 165.929688 93.65625 166.082031 96.523438 C 166.148438 97.835938 166.34375 99.113281 166.714844 100.445312 C 167.113281 101.875 167.714844 103.375 168.578125 105.050781 C 169.738281 107.292969 170.78125 107.347656 173.289062 106.742188 C 174.207031 106.519531 174.542969 107.921875 173.621094 108.136719 C 172.128906 108.5 170.175781 108.660156 168.800781 107.820312 C 169.417969 111.203125 165.855469 111.152344 164.839844 112.984375 C 164.378906 113.8125 163.121094 113.113281 163.582031 112.285156 C 165.234375 109.304688 169.09375 110.816406 166.304688 105.953125 C 165.117188 103.882812 164.0625 102.28125 162.078125 100.199219 C 161.089844 99.15625 159.984375 98.164062 158.832031 97.429688 C 158.433594 97.691406 157.996094 97.894531 157.53125 98.046875 C 158.828125 105.042969 158.761719 114.9375 164.351562 120.089844 C 167.632812 117.179688 171.300781 119.617188 175.492188 114.195312 C 176.070312 113.445312 177.207031 114.328125 176.628906 115.074219 C 172.101562 120.929688 168.8125 118.445312 165.5 121.015625 C 167.195312 122.207031 169.246094 122.921875 171.695312 123.015625 C 173.269531 123.066406 173.1875 125.464844 171.613281 125.410156 C 167.769531 125.265625 164.933594 124.015625 162.808594 122.0625 C 156.683594 116.433594 156.429688 104.957031 154.902344 97.070312 C 154.015625 92.476562 153.359375 87.25 151.105469 83.128906 C 147.109375 75.820312 137.226562 76.050781 135.296875 84.703125 C 134.445312 88.492188 134.84375 93.160156 135.179688 96.78125 C 135.34375 98.523438 135.550781 100.289062 135.878906 102.003906 C 136.6875 106.25 138.109375 110.386719 139.359375 114.519531 C 140.40625 117.96875 140.804688 120.640625 140.570312 123.328125 C 140.339844 125.996094 139.492188 128.609375 138.042969 131.96875 C 134.78125 139.519531 134.164062 142.066406 132.941406 150.183594 C 132.699219 152.390625 132.511719 154.527344 132.472656 156.484375 C 132.40625 159.347656 132.632812 161.890625 133.425781 163.816406 C 134.027344 165.273438 131.808594 166.1875 131.210938 164.726562 C 130.675781 163.4375 130.359375 161.957031 130.199219 160.332031 C 128.972656 163.503906 127.144531 167.042969 126.710938 170.363281 C 125.996094 175.816406 126.15625 181.367188 127.484375 186.558594 C 128.585938 190.867188 130.492188 194.921875 133.375 198.460938 C 142.773438 190.542969 160.828125 183.308594 172.941406 182.210938 Z M 142.203125 103.59375 C 141.289062 103.347656 141.664062 101.953125 142.582031 102.203125 C 144.648438 102.765625 147.765625 102.550781 149.535156 101.257812 C 150.300781 100.703125 151.148438 101.863281 150.382812 102.417969 C 148.25 103.972656 144.699219 104.273438 142.203125 103.59375 Z M 158.945312 92.835938 L 158.945312 14.949219 C 158.945312 13.269531 157.5625 11.886719 155.878906 11.886719 L 110.574219 11.886719 C 108.894531 11.886719 107.511719 13.269531 107.511719 14.949219 L 107.511719 92.835938 C 107.511719 94.519531 108.890625 95.902344 110.574219 95.902344 L 132.695312 95.902344 C 132.378906 92.300781 132.113281 87.941406 132.953125 84.1875 C 135.320312 73.589844 148.003906 72.503906 153.078125 81.585938 C 155.417969 85.769531 156.203125 90.984375 157.078125 95.660156 C 158.199219 95.183594 158.945312 94.070312 158.945312 92.839844 Z M 160.542969 95.683594 C 161.71875 96.492188 162.828125 97.5 163.820312 98.542969 L 163.878906 98.605469 C 163.71875 97.53125 163.652344 96.460938 163.652344 95.359375 C 163.652344 95.3125 161.503906 94.332031 161.195312 94.109375 C 161.058594 94.671875 160.835938 95.199219 160.539062 95.683594 Z M 137.253906 84.933594 C 137.433594 84.003906 138.847656 84.273438 138.671875 85.203125 C 138.402344 86.609375 138.394531 91.480469 140.195312 91.847656 C 141.371094 92.089844 146.996094 91.269531 147.941406 90.785156 C 149.632812 89.914062 149.164062 87.363281 148.789062 85.886719 C 148.5625 84.96875 149.957031 84.617188 150.1875 85.535156 C 150.757812 87.78125 151.035156 90.808594 148.597656 92.0625 C 147.371094 92.695312 141.402344 93.566406 139.90625 93.257812 C 137.035156 92.664062 136.820312 87.210938 137.253906 84.929688 Z M 113.664062 119.980469 C 112.761719 119.703125 113.175781 118.328125 114.078125 118.601562 C 117.113281 119.527344 120.289062 115.394531 121.550781 113.15625 C 122.015625 112.332031 123.265625 113.039062 122.804688 113.863281 C 121.148438 116.792969 117.523438 121.152344 113.664062 119.980469 Z M 129.699219 114.390625 C 130.429688 112.996094 132.554688 114.101562 131.824219 115.5 C 131.726562 115.6875 131.621094 115.882812 131.511719 116.074219 C 133.316406 115.859375 135.230469 115.347656 136.835938 114.488281 C 135.71875 110.8125 134.511719 107.15625 133.710938 103.390625 C 126.566406 104.324219 120.816406 109.359375 115.992188 114.390625 C 113.910156 116.5625 112.144531 118.867188 112.050781 120.558594 C 111.894531 123.234375 112.917969 125.207031 115.800781 125.371094 C 120.582031 125.648438 125.433594 120.664062 127.960938 117.121094 C 128.605469 116.222656 129.191406 115.304688 129.699219 114.390625 Z M 137.511719 116.839844 C 135.199219 117.960938 132.472656 118.53125 129.910156 118.589844 C 127.175781 122.433594 122.507812 126.894531 117.648438 127.664062 C 117.414062 128.429688 117.460938 129.226562 117.769531 129.929688 C 119.015625 132.757812 123.613281 132.804688 125.679688 131.140625 C 126.988281 130.089844 128.003906 128.382812 128.855469 126.363281 C 129.632812 124.53125 129.953125 122.789062 131.523438 121.339844 C 132.675781 120.269531 134.304688 122.027344 133.148438 123.097656 C 132.640625 123.566406 132.367188 124.019531 132.117188 124.609375 C 134.519531 124.996094 135.683594 126.859375 136.746094 128.785156 C 137.539062 126.6875 138.015625 124.898438 138.171875 123.125 C 138.339844 121.191406 138.121094 119.222656 137.511719 116.839844 Z M 119.183594 129.359375 C 118.269531 129.105469 118.652344 127.71875 119.5625 127.972656 C 121.519531 128.519531 123.652344 126.828125 124.582031 125.21875 C 125.054688 124.402344 126.296875 125.117188 125.828125 125.9375 C 124.5625 128.132812 121.800781 130.09375 119.183594 129.359375 Z M 126.757812 16.6875 L 139.691406 16.6875 C 142.832031 16.6875 142.832031 21.460938 139.691406 21.460938 L 126.757812 21.460938 C 123.621094 21.460938 123.621094 16.6875 126.757812 16.6875 Z M 139.691406 18.132812 L 126.757812 18.132812 C 125.523438 18.132812 125.523438 20.015625 126.757812 20.015625 L 139.691406 20.015625 C 140.933594 20.015625 140.933594 18.132812 139.691406 18.132812 Z M 139.691406 18.132812 "></path> <path style=" stroke:none;fill-rule:nonzero;fill:rgb(0%,0%,0%);fill-opacity:1;" d="M 30.015625 240.074219 L 30 240.074219 L 30 240.058594 C 30.003906 240.054688 30.007812 240.050781 30.015625 240.050781 L 30.015625 240.058594 L 30.007812 240.058594 L 30.007812 240.074219 L 30.015625 240.074219 L 30.015625 240.066406 Z M 30.015625 240.074219 "></path> <path style=" stroke:none;fill-rule:nonzero;fill:rgb(0%,0%,0%);fill-opacity:1;" d="M 30.03125 240.066406 C 30.03125 240.0625 30.027344 240.058594 30.027344 240.058594 L 30.027344 240.074219 L 30.019531 240.074219 L 30.019531 240.058594 L 30.03125 240.058594 Z M 30.03125 240.066406 "></path> <path style=" stroke:none;fill-rule:nonzero;fill:rgb(0%,0%,0%);fill-opacity:1;" d="M 30.042969 240.066406 L 30.039062 240.066406 L 30.039062 240.074219 L 30.042969 240.074219 L 30.042969 240.066406 L 30.042969 240.074219 L 30.03125 240.074219 L 30.03125 240.066406 L 30.039062 240.058594 C 30.039062 240.058594 30.042969 240.0625 30.042969 240.066406 Z M 30.042969 240.066406 L 30.039062 240.066406 L 30.039062 240.058594 L 30.039062 240.066406 Z M 30.042969 240.066406 "></path> <path style=" stroke:none;fill-rule:nonzero;fill:rgb(0%,0%,0%);fill-opacity:1;" d="M 30.050781 240.066406 L 30.050781 240.074219 L 30.058594 240.066406 Z M 30.058594 240.066406 L 30.058594 240.074219 L 30.042969 240.074219 L 30.042969 240.066406 L 30.058594 240.066406 L 30.050781 240.066406 L 30.050781 240.058594 L 30.042969 240.058594 L 30.042969 240.066406 L 30.042969 240.058594 L 30.058594 240.058594 Z M 30.058594 240.066406 "></path> <path style=" stroke:none;fill-rule:nonzero;fill:rgb(0%,0%,0%);fill-opacity:1;" d="M 30.066406 240.050781 L 30.066406 240.058594 L 30.074219 240.058594 L 30.066406 240.058594 L 30.066406 240.074219 L 30.074219 240.074219 L 30.0625 240.074219 L 30.0625 240.050781 Z M 30.066406 240.050781 "></path> <path style=" stroke:none;fill-rule:nonzero;fill:rgb(0%,0%,0%);fill-opacity:1;" d="M 30.085938 240.066406 L 30.078125 240.066406 L 30.078125 240.074219 L 30.085938 240.074219 L 30.085938 240.066406 L 30.085938 240.074219 L 30.074219 240.074219 L 30.074219 240.066406 L 30.078125 240.058594 C 30.085938 240.058594 30.085938 240.0625 30.085938 240.066406 Z M 30.085938 240.066406 L 30.078125 240.066406 L 30.078125 240.058594 L 30.078125 240.066406 Z M 30.085938 240.066406 "></path> <path style=" stroke:none;fill-rule:nonzero;fill:rgb(0%,0%,0%);fill-opacity:1;" d="M 30.101562 240.058594 L 30.101562 240.050781 L 30.101562 240.074219 L 30.089844 240.074219 L 30.089844 240.066406 L 30.097656 240.058594 Z M 30.097656 240.074219 L 30.101562 240.066406 L 30.097656 240.066406 L 30.097656 240.058594 Z M 30.097656 240.074219 "></path> <path style=" stroke:none;fill-rule:nonzero;fill:rgb(0%,0%,0%);fill-opacity:1;" d="M 30.121094 240.074219 L 30.128906 240.074219 L 30.128906 240.066406 C 30.128906 240.0625 30.125 240.058594 30.121094 240.058594 Z M 30.121094 240.058594 L 30.128906 240.058594 L 30.128906 240.074219 L 30.113281 240.074219 L 30.113281 240.050781 L 30.121094 240.050781 Z M 30.121094 240.058594 "></path> <path style=" stroke:none;fill-rule:nonzero;fill:rgb(0%,0%,0%);fill-opacity:1;" d="M 30.132812 240.058594 L 30.136719 240.058594 L 30.136719 240.066406 L 30.144531 240.058594 L 30.136719 240.074219 L 30.136719 240.078125 L 30.132812 240.078125 L 30.132812 240.074219 L 30.136719 240.074219 Z M 30.132812 240.058594 "></path> <path style=" stroke:none;fill-rule:nonzero;fill:rgb(0%,0%,0%);fill-opacity:1;" d="M 30.167969 240.058594 L 30.160156 240.058594 L 30.160156 240.074219 L 30.167969 240.074219 Z M 30.167969 240.050781 L 30.167969 240.058594 C 30.171875 240.058594 30.175781 240.0625 30.175781 240.066406 L 30.167969 240.074219 L 30.15625 240.074219 L 30.15625 240.058594 C 30.160156 240.054688 30.164062 240.050781 30.167969 240.050781 Z M 30.167969 240.050781 "></path> <path style=" stroke:none;fill-rule:nonzero;fill:rgb(0%,0%,0%);fill-opacity:1;" d="M 30.179688 240.050781 L 30.183594 240.050781 L 30.183594 240.074219 L 30.179688 240.074219 Z M 30.179688 240.050781 "></path> <path style=" stroke:none;fill-rule:nonzero;fill:rgb(0%,0%,0%);fill-opacity:1;" d="M 30.199219 240.066406 L 30.191406 240.066406 L 30.191406 240.074219 L 30.199219 240.074219 L 30.199219 240.066406 L 30.199219 240.074219 L 30.183594 240.074219 L 30.183594 240.066406 L 30.191406 240.058594 C 30.195312 240.058594 30.199219 240.0625 30.199219 240.066406 Z M 30.199219 240.066406 L 30.191406 240.066406 L 30.191406 240.058594 L 30.191406 240.066406 Z M 30.199219 240.066406 "></path> <path style=" stroke:none;fill-rule:nonzero;fill:rgb(0%,0%,0%);fill-opacity:1;" d="M 30.203125 240.050781 L 30.207031 240.050781 L 30.207031 240.066406 L 30.214844 240.058594 L 30.207031 240.066406 L 30.214844 240.074219 L 30.207031 240.066406 L 30.207031 240.074219 L 30.203125 240.074219 Z M 30.203125 240.050781 "></path> <path style=" stroke:none;fill-rule:nonzero;fill:rgb(0%,0%,0%);fill-opacity:1;" d="M 30.230469 240.058594 L 30.230469 240.066406 C 30.230469 240.0625 30.226562 240.058594 30.226562 240.058594 L 30.226562 240.066406 L 30.230469 240.066406 L 30.230469 240.074219 L 30.21875 240.074219 L 30.21875 240.066406 L 30.21875 240.074219 L 30.226562 240.074219 L 30.226562 240.066406 L 30.21875 240.066406 L 30.21875 240.058594 Z M 30.230469 240.058594 "></path> <path style=" stroke:none;fill-rule:nonzero;fill:rgb(0%,0%,0%);fill-opacity:1;" d="M 30.238281 240.066406 L 30.238281 240.074219 L 30.242188 240.066406 Z M 30.242188 240.066406 L 30.242188 240.074219 L 30.230469 240.074219 L 30.230469 240.066406 L 30.242188 240.066406 L 30.238281 240.066406 L 30.238281 240.058594 L 30.230469 240.058594 L 30.230469 240.066406 L 30.230469 240.058594 L 30.242188 240.058594 Z M 30.242188 240.066406 "></path> <path style=" stroke:none;fill-rule:nonzero;fill:rgb(0%,0%,0%);fill-opacity:1;" d="M 30.261719 240.066406 L 30.261719 240.074219 L 30.261719 240.066406 L 30.253906 240.066406 L 30.253906 240.058594 L 30.253906 240.074219 L 30.25 240.074219 L 30.25 240.058594 L 30.261719 240.058594 Z M 30.261719 240.066406 "></path> <path style=" stroke:none;fill-rule:nonzero;fill:rgb(0%,0%,0%);fill-opacity:1;" d="M 30.277344 240.058594 L 30.277344 240.050781 L 30.277344 240.074219 L 30.265625 240.074219 L 30.265625 240.066406 L 30.273438 240.058594 Z M 30.273438 240.074219 L 30.277344 240.066406 L 30.273438 240.066406 L 30.273438 240.058594 Z M 30.273438 240.074219 "></path> <path style=" stroke:none;fill-rule:nonzero;fill:rgb(0%,0%,0%);fill-opacity:1;" d="M 30.296875 240.066406 C 30.296875 240.0625 30.289062 240.058594 30.289062 240.058594 L 30.289062 240.074219 L 30.28125 240.074219 L 30.28125 240.058594 L 30.296875 240.058594 Z M 30.296875 240.066406 "></path> <path style=" stroke:none;fill-rule:nonzero;fill:rgb(0%,0%,0%);fill-opacity:1;" d="M 30.300781 240.050781 L 30.308594 240.050781 C 30.3125 240.050781 30.316406 240.054688 30.316406 240.058594 L 30.316406 240.066406 L 30.308594 240.066406 L 30.308594 240.074219 L 30.300781 240.074219 Z M 30.308594 240.058594 L 30.308594 240.066406 L 30.316406 240.066406 L 30.316406 240.058594 Z M 30.308594 240.058594 "></path> <path style=" stroke:none;fill-rule:nonzero;fill:rgb(0%,0%,0%);fill-opacity:1;" d="M 30.324219 240.066406 L 30.324219 240.074219 L 30.332031 240.066406 Z M 30.332031 240.066406 L 30.332031 240.074219 L 30.320312 240.074219 L 30.320312 240.066406 L 30.332031 240.066406 L 30.324219 240.066406 L 30.324219 240.058594 L 30.320312 240.058594 L 30.320312 240.066406 L 30.320312 240.058594 L 30.332031 240.058594 Z M 30.332031 240.066406 "></path> <path style=" stroke:none;fill-rule:nonzero;fill:rgb(0%,0%,0%);fill-opacity:1;" d="M 30.347656 240.066406 L 30.347656 240.074219 L 30.347656 240.066406 L 30.34375 240.066406 L 30.34375 240.058594 L 30.34375 240.074219 L 30.335938 240.074219 L 30.335938 240.058594 L 30.347656 240.058594 Z M 30.347656 240.066406 "></path> <path style=" stroke:none;fill-rule:nonzero;fill:rgb(0%,0%,0%);fill-opacity:1;" d="M 30.359375 240.066406 L 30.359375 240.074219 L 30.367188 240.066406 Z M 30.367188 240.066406 L 30.367188 240.074219 L 30.355469 240.074219 L 30.355469 240.066406 L 30.367188 240.066406 L 30.359375 240.066406 L 30.359375 240.058594 L 30.355469 240.058594 L 30.355469 240.066406 L 30.355469 240.058594 L 30.367188 240.058594 Z M 30.367188 240.066406 "></path> <path style=" stroke:none;fill-rule:nonzero;fill:rgb(0%,0%,0%);fill-opacity:1;" d="M 30.382812 240.058594 L 30.382812 240.066406 C 30.382812 240.0625 30.378906 240.058594 30.378906 240.058594 L 30.378906 240.066406 L 30.382812 240.066406 L 30.382812 240.074219 L 30.371094 240.074219 L 30.371094 240.066406 L 30.371094 240.074219 L 30.378906 240.074219 L 30.378906 240.066406 L 30.371094 240.066406 L 30.371094 240.058594 Z M 30.382812 240.058594 "></path> <path style=" stroke:none;fill-rule:nonzero;fill:rgb(0%,0%,0%);fill-opacity:1;" d="M 30.390625 240.058594 L 30.390625 240.074219 L 30.394531 240.066406 L 30.390625 240.066406 Z M 30.390625 240.058594 C 30.394531 240.058594 30.394531 240.0625 30.394531 240.066406 L 30.394531 240.074219 L 30.382812 240.074219 L 30.382812 240.066406 Z M 30.390625 240.058594 "></path> <path style=" stroke:none;fill-rule:nonzero;fill:rgb(0%,0%,0%);fill-opacity:1;" d="M 30.402344 240.058594 L 30.40625 240.058594 L 30.40625 240.066406 L 30.414062 240.058594 L 30.414062 240.074219 L 30.40625 240.074219 Z M 30.402344 240.058594 "></path> <path style=" stroke:none;fill-rule:nonzero;fill:rgb(0%,0%,0%);fill-opacity:1;" d="M 30.429688 240.058594 L 30.429688 240.066406 C 30.429688 240.0625 30.425781 240.058594 30.421875 240.058594 L 30.421875 240.066406 L 30.429688 240.066406 L 30.429688 240.074219 L 30.414062 240.074219 L 30.414062 240.066406 L 30.414062 240.074219 L 30.421875 240.074219 L 30.421875 240.066406 L 30.414062 240.066406 L 30.414062 240.058594 Z M 30.429688 240.058594 "></path> <path style=" stroke:none;fill-rule:nonzero;fill:rgb(0%,0%,0%);fill-opacity:1;" d="M 30.429688 240.050781 L 30.4375 240.050781 L 30.4375 240.066406 L 30.441406 240.058594 L 30.4375 240.066406 L 30.441406 240.074219 L 30.4375 240.066406 L 30.4375 240.074219 L 30.429688 240.074219 Z M 30.429688 240.050781 "></path> <path style=" stroke:none;fill-rule:nonzero;fill:rgb(0%,0%,0%);fill-opacity:1;" d="M 30.445312 240.058594 L 30.453125 240.058594 L 30.453125 240.066406 L 30.460938 240.058594 L 30.453125 240.074219 L 30.453125 240.078125 L 30.445312 240.078125 L 30.445312 240.074219 L 30.453125 240.074219 Z M 30.445312 240.058594 "></path> <path style=" stroke:none;fill-rule:nonzero;fill:rgb(0%,0%,0%);fill-opacity:1;" d="M 30.460938 240.058594 L 30.46875 240.058594 L 30.46875 240.074219 L 30.460938 240.074219 Z M 30.460938 240.050781 L 30.46875 240.050781 L 30.46875 240.058594 L 30.460938 240.058594 Z M 30.460938 240.050781 "></path> <path style=" stroke:none;fill-rule:nonzero;fill:rgb(0%,0%,0%);fill-opacity:1;" d="M 30.015625 240.074219 L 30.015625 240.082031 L 30.007812 240.082031 L 30.015625 240.082031 L 30.007812 240.082031 L 30.007812 240.097656 L 30 240.097656 L 30 240.082031 L 30.007812 240.074219 Z M 30.015625 240.074219 "></path> <path style=" stroke:none;fill-rule:nonzero;fill:rgb(0%,0%,0%);fill-opacity:1;" d="M 30.023438 240.089844 C 30.023438 240.085938 30.019531 240.082031 30.015625 240.082031 L 30.015625 240.097656 L 30.007812 240.097656 L 30.007812 240.082031 L 30.023438 240.082031 Z M 30.023438 240.089844 "></path> <path style=" stroke:none;fill-rule:nonzero;fill:rgb(0%,0%,0%);fill-opacity:1;" d="M 30.027344 240.082031 L 30.027344 240.097656 L 30.035156 240.089844 L 30.027344 240.089844 Z M 30.027344 240.082031 C 30.03125 240.082031 30.035156 240.085938 30.035156 240.089844 L 30.035156 240.097656 L 30.019531 240.097656 L 30.019531 240.089844 Z M 30.027344 240.082031 "></path> <path style=" stroke:none;fill-rule:nonzero;fill:rgb(0%,0%,0%);fill-opacity:1;" d="M 30.050781 240.082031 L 30.058594 240.082031 L 30.058594 240.097656 L 30.058594 240.082031 C 30.054688 240.082031 30.050781 240.085938 30.050781 240.089844 L 30.050781 240.097656 L 30.050781 240.089844 L 30.042969 240.089844 L 30.042969 240.082031 L 30.042969 240.097656 L 30.039062 240.097656 L 30.039062 240.082031 Z M 30.050781 240.082031 "></path> <path style=" stroke:none;fill-rule:nonzero;fill:rgb(0%,0%,0%);fill-opacity:1;" d="M 30.078125 240.074219 L 30.078125 240.082031 L 30.085938 240.082031 L 30.078125 240.082031 L 30.078125 240.097656 L 30.085938 240.097656 L 30.074219 240.097656 L 30.074219 240.074219 Z M 30.078125 240.074219 "></path> <path style=" stroke:none;fill-rule:nonzero;fill:rgb(0%,0%,0%);fill-opacity:1;" d="M 30.097656 240.089844 L 30.097656 240.097656 L 30.097656 240.089844 L 30.089844 240.089844 L 30.089844 240.082031 L 30.089844 240.097656 L 30.085938 240.097656 L 30.085938 240.074219 L 30.089844 240.074219 L 30.089844 240.082031 L 30.097656 240.082031 Z M 30.097656 240.089844 "></path> <path style=" stroke:none;fill-rule:nonzero;fill:rgb(0%,0%,0%);fill-opacity:1;" d="M 30.113281 240.089844 L 30.109375 240.089844 L 30.109375 240.097656 L 30.113281 240.097656 L 30.113281 240.089844 L 30.113281 240.097656 L 30.101562 240.097656 L 30.101562 240.089844 L 30.109375 240.082031 C 30.109375 240.082031 30.113281 240.085938 30.113281 240.089844 Z M 30.113281 240.089844 L 30.109375 240.089844 L 30.109375 240.082031 L 30.109375 240.089844 Z M 30.113281 240.089844 "></path> <path style=" stroke:none;fill-rule:nonzero;fill:rgb(0%,0%,0%);fill-opacity:1;" d="M 30.125 240.074219 L 30.132812 240.074219 L 30.136719 240.089844 L 30.136719 240.074219 L 30.144531 240.074219 L 30.144531 240.097656 L 30.136719 240.097656 L 30.132812 240.082031 L 30.132812 240.097656 L 30.125 240.097656 Z M 30.125 240.074219 "></path> <path style=" stroke:none;fill-rule:nonzero;fill:rgb(0%,0%,0%);fill-opacity:1;" d="M 30.152344 240.082031 L 30.152344 240.097656 L 30.160156 240.089844 L 30.152344 240.089844 Z M 30.152344 240.082031 C 30.15625 240.082031 30.160156 240.085938 30.160156 240.089844 L 30.160156 240.097656 L 30.144531 240.097656 L 30.144531 240.089844 Z M 30.152344 240.082031 "></path> <path style=" stroke:none;fill-rule:nonzero;fill:rgb(0%,0%,0%);fill-opacity:1;" d="M 30.160156 240.089844 L 30.160156 240.082031 L 30.167969 240.082031 L 30.167969 240.097656 L 30.175781 240.089844 L 30.175781 240.082031 L 30.175781 240.097656 L 30.160156 240.097656 Z M 30.160156 240.089844 "></path> <path style=" stroke:none;fill-rule:nonzero;fill:rgb(0%,0%,0%);fill-opacity:1;" d="M 30.191406 240.089844 L 30.191406 240.097656 L 30.191406 240.089844 L 30.183594 240.089844 L 30.183594 240.082031 L 30.183594 240.097656 L 30.179688 240.097656 L 30.179688 240.082031 L 30.191406 240.082031 Z M 30.191406 240.089844 "></path> <path style=" stroke:none;fill-rule:nonzero;fill:rgb(0%,0%,0%);fill-opacity:1;" d="M 30.203125 240.074219 L 30.210938 240.074219 C 30.214844 240.074219 30.21875 240.078125 30.21875 240.082031 L 30.21875 240.089844 L 30.210938 240.089844 L 30.210938 240.097656 L 30.203125 240.097656 Z M 30.210938 240.082031 L 30.210938 240.089844 L 30.21875 240.089844 L 30.21875 240.082031 Z M 30.210938 240.082031 "></path> <path style=" stroke:none;fill-rule:nonzero;fill:rgb(0%,0%,0%);fill-opacity:1;" d="M 30.238281 240.089844 C 30.238281 240.085938 30.230469 240.082031 30.230469 240.082031 L 30.230469 240.097656 L 30.222656 240.097656 L 30.222656 240.082031 L 30.238281 240.082031 Z M 30.238281 240.089844 "></path> <path style=" stroke:none;fill-rule:nonzero;fill:rgb(0%,0%,0%);fill-opacity:1;" d="M 30.242188 240.082031 L 30.242188 240.097656 L 30.25 240.089844 L 30.242188 240.089844 Z M 30.242188 240.082031 C 30.242188 240.082031 30.25 240.085938 30.25 240.089844 L 30.25 240.097656 L 30.234375 240.097656 L 30.234375 240.089844 Z M 30.242188 240.082031 "></path> <path style=" stroke:none;fill-rule:nonzero;fill:rgb(0%,0%,0%);fill-opacity:1;" d="M 30.25 240.082031 L 30.257812 240.082031 L 30.257812 240.097656 C 30.257812 240.097656 30.253906 240.101562 30.25 240.101562 Z M 30.25 240.074219 L 30.257812 240.074219 L 30.257812 240.082031 L 30.25 240.082031 Z M 30.25 240.074219 "></path> <path style=" stroke:none;fill-rule:nonzero;fill:rgb(0%,0%,0%);fill-opacity:1;" d="M 30.273438 240.089844 L 30.265625 240.089844 L 30.265625 240.097656 L 30.273438 240.097656 L 30.273438 240.089844 L 30.273438 240.097656 L 30.257812 240.097656 L 30.257812 240.089844 L 30.265625 240.082031 C 30.265625 240.082031 30.273438 240.085938 30.273438 240.089844 Z M 30.273438 240.089844 L 30.265625 240.089844 L 30.265625 240.082031 L 30.265625 240.089844 Z M 30.273438 240.089844 "></path> <path style=" stroke:none;fill-rule:nonzero;fill:rgb(0%,0%,0%);fill-opacity:1;" d="M 30.289062 240.082031 L 30.289062 240.089844 C 30.289062 240.085938 30.285156 240.082031 30.28125 240.082031 L 30.28125 240.097656 L 30.289062 240.097656 L 30.289062 240.089844 L 30.289062 240.097656 L 30.273438 240.097656 L 30.273438 240.089844 L 30.28125 240.082031 Z M 30.289062 240.082031 "></path> <path style=" stroke:none;fill-rule:nonzero;fill:rgb(0%,0%,0%);fill-opacity:1;" d="M 30.296875 240.074219 L 30.296875 240.082031 L 30.300781 240.082031 L 30.296875 240.082031 L 30.296875 240.097656 L 30.300781 240.097656 L 30.289062 240.097656 L 30.289062 240.074219 Z M 30.296875 240.074219 "></path> </g> </svg> 